# AST/ASF file generated using VICON BodyLanguage
# -----------------------------------------------
:version 1.10
:name VICON
:units
  mass 1.0
  length 0.45
  angle deg
:documentation
   .ast/.asf automatically generated from VICON data using
   VICON BodyBuilder and BodyLanguage model FoxedUp or BRILLIANT.MOD
:root
   order TX TY TZ RX RY RZ
   axis XYZ
   position 0 0 0  
   orientation 0 0 0 
:bonedata
  begin
     id 1 
     name lhipjoint
     direction 0.662698 -0.695252 0.27831 
     length 2.53073 
     axis 0 0 0  XYZ
  end
  begin
     id 2 
     name lfemur
     direction 0.34202 -0.939693 0  
     length 7.16147  
     axis 0 0 20  XYZ
    dof rx ry rz
    limits (-160.0 20.0)
           (-70.0 70.0)
           (-60.0 70.0)
  end
  begin
     id 3 
     name ltibia
     direction 0.34202 -0.939693 0   
     length 7.63967   
     axis 0 0 20   XYZ
    dof rx
    limits (-10.0 170.0)
  end
  begin
     id 4 
     name lfoot
     direction 0.0938457 -0.257721 0.961651   
     length 1.89793   
     axis -90 7.62852e-016 20   XYZ
    dof rx rz
    limits (-45.0 90.0)
           (-70.0 20.0)
  end
  begin
     id 5 
     name ltoes
     direction -0.00116841 -0.0030592 0.999995   
     length 0.955649   
     axis -90 7.62852e-016 20   XYZ
    dof rx
    limits (-90.0 20.0)
  end
  begin
     id 6 
     name rhipjoint
     direction -0.649445 -0.705948 0.282592   
     length 2.49238  
     axis 0 0 0  XYZ 
  end
  begin
     id 7 
     name rfemur
     direction -0.34202 -0.939693 0   
     length 6.90728   
     axis 0 0 -20   XYZ
    dof rx ry rz
    limits (-160.0 20.0)
           (-70.0 70.0)
           (-70.0 60.0)
  end
  begin
     id 8 
     name rtibia
     direction -0.34202 -0.939693 0   
     length 7.72868   
     axis 0 0 -20   XYZ
    dof rx
    limits (-10.0 170.0)
 end
 begin
     id 9 
     name rfoot
     direction -0.0920068 -0.252865 0.963117   
     length 1.97476  
     axis -90 -7.62852e-016 -20   XYZ
    dof rx rz
    limits (-45.0 90.0)
           (-20.0 70.0)
  end
  begin
     id 10 
     name rtoes
     direction 0.000391322 0.00230649 0.999997   
     length 0.992641   
     axis -90 -7.62852e-016 -20   XYZ
    dof rx
    limits (-90.0 20.0)
  end
  begin
     id 11 
     name lowerback
     direction -0.00875327 0.998321 -0.0572635   
     length 2.20024   
     axis 0 0 0   XYZ
    dof rx ry rz
    limits (-20.0 45.0)
           (-30.0 30.0)
           (-30.0 30.0)
  end
  begin
     id 12 
     name upperback
     direction 0.00753931 0.999972 -0.000360425   
     length 2.20538   
     axis 0 0 0   XYZ
    dof rx ry rz
    limits (-20.0 45.0)
           (-30.0 30.0)
           (-30.0 30.0)
  end
  begin
     id 13 
     name thorax
     direction 0.0117767 0.999601 0.0256663   
     length 2.21508   
     axis 0 0 0   XYZ
    dof rx ry rz
    limits (-20.0 45.0)
           (-30.0 30.0)
           (-30.0 30.0)
  end
  begin
     id 14 
     name lowerneck
     direction 0.060228 0.994909 0.0807986   
     length 1.7607   
     axis 0 0 0   XYZ
    dof rx ry rz
    limits (-20.0 45.0)
           (-30.0 30.0)
           (-30.0 30.0)
  end
  begin
     id 15 
     name upperneck
     direction -0.0563647 0.959594 -0.275685   
     length 1.75612   
     axis 0 0 0   XYZ
    dof rx ry rz
    limits (-20.0 45.0)
           (-30.0 30.0)
           (-30.0 30.0)
  end
  begin
     id 16
     name head
     direction -0.0161544 0.99458 -0.102714  
     length 1.79288  
     axis 0 0 0   XYZ
    dof rx ry rz
    limits (-20.0 45.0)
           (-30.0 30.0)
           (-30.0 30.0)
  end
  begin
     id 17 
     name lclavicle
     direction 0.93913 0.332189 -0.087669  
     length 3.52087  
     axis 0 0 0   XYZ
    dof ry rz
    limits (-20.0 10.0)
           (0.0 20.0)
  end
  begin
     id 18 
     name lhumerus
     direction 1 -4.48974e-011 -2.70836e-027   
     length 5.35289   
     axis -180 -30 -90   XYZ
    dof rx ry rz
    limits (-60.0 90.0)
           (-90.0 90.0)
           (-90.0 90.0)
  end
  begin
     id 19
     name lradius
     direction 1 -4.48961e-011 -9.76021e-027   
     length 3.27727   
     axis -180 -30 -90   XYZ
    dof rx
    limits (-10.0 170.0)
  end
  begin
     id 20
     name lwrist
     direction 1 -4.49103e-011 -2.23668e-026   
     length 1.63864   
     axis 1.44924e-014 90 90   XYZ
    dof ry
    limits (-180.0 0.0)
 end
  begin
     id 21 
     name lhand
     direction 1 3.0697e-005 0.000161777   
     length 0.54443   
     axis 2.85318e-014 90 90   XYZ
    dof rx rz
    limits (-90.0 90.0)
           (-45.0 45.0)
  end
  begin
     id 22 
     name lfingers
     direction 1 -4.49027e-011 -8.9447e-026   
     length 0.438912   
     axis 5.70628e-014 90 90   XYZ
    dof rx
    limits (0.0 90.0)
  end
  begin
     id 23
     name lthumb
     direction 0.707058 2.6516e-005 0.707156   
     length 0.630274   
     axis -90 45 -3.53137e-014   XYZ
    dof rx rz
    limits (-45.0 45.0)
           (-45.0 45.0)
  end
  begin
     id 24 
     name rclavicle
     direction -0.95274 0.284984 -0.105215   
     length 3.43401  
     axis 0 0 0   XYZ 
    dof ry rz
    limits (-10.0 20.0)
           (-20.0 0.0)
  end
  begin
     id 25 
     name rhumerus
     direction -0.999999 -0.000575019 -0.00106829  
     length 5.52077   
     axis -180 30 90   XYZ
    dof rx ry rz
    limits (-90.0 60.0)
           (-90.0 90.0)
           (-90.0 90.0)
  end
  begin
     id 26 
     name rradius
     direction -1 -4.4879e-011 -6.35415e-027   
     length 3.32364   
     axis -180 30 90   XYZ
    dof rx
    limits (-10.0 170.0)
  end
  begin
     id 27 
     name rwrist
     direction -1 -4.49048e-011 -9.98542e-027   
     length 1.66182   
     axis 6.32482e-015 -90 -90   XYZ
    dof ry
    limits (-180.0 0.0)
  end
  begin
     id 28
     name rhand
     direction -1 -4.48978e-011 -1.99771e-026   
     length 0.732235   
     axis 1.27479e-014 -90 -90   XYZ
    dof rx rz
    limits (-90.0 90.0)
           (-45.0 45.0)
  end
  begin
     id 29
     name rfingers
     direction -1 -4.49144e-011 -3.99245e-026   
     length 0.590347   
     axis 2.5496e-014 -90 -90   XYZ
    dof rx
    limits (0.0 90.0)
  end
  begin
     id 30
     name rthumb
     direction -0.707107 -6.35121e-011 0.707107   
     length 0.847624   
     axis -90 -45 -2.82974e-014   XYZ
    dof rx rz
    limits (-45.0 45.0)
           (-45.0 45.0)
  end
:hierarchy
  begin
    root lhipjoint rhipjoint lowerback
    lhipjoint lfemur
    lfemur ltibia
    ltibia lfoot
    lfoot ltoes
    rhipjoint rfemur
    rfemur rtibia
    rtibia rfoot
    rfoot rtoes
    lowerback upperback
    upperback thorax
    thorax lowerneck lclavicle rclavicle
    lowerneck upperneck
    upperneck head
    lclavicle lhumerus
    lhumerus lradius
    lradius lwrist
    lwrist lhand lthumb
    lhand lfingers
    rclavicle rhumerus
    rhumerus rradius
    rradius rwrist
    rwrist rhand rthumb
    rhand rfingers
  end

#!OML:ASF G:\Work\Work\Patient Classification 1\Elijah\terrain1\Elijah.ASF
:FULLY-SPECIFIED
:DEGREES
2425
root 8.31686 20.2088 31.7426 900.276 -77.176 189.332
lowerback 5.91055 -1.20883 -9.66361
upperback 0.388744 -2.62537 -5.06113
thorax -2.74584 -1.30646 0.35744
lowerneck -18.4807 6.14337 8.10576
upperneck 36.6417 3.66913 2.60105
head 16.4769 2.51282 0.290415
rclavicle 5.96354e-015 0
rhumerus -45.9696 7.28291 -88.6917
rradius 39.0719
rwrist -0.640977
rhand -9.72539 23.1248
rfingers 7.12502
rthumb 16.2481 -6.21439
lclavicle 5.96354e-015 0
lhumerus -23.5693 -15.5488 90.4194
lradius 53.6377
lwrist 19.6671
lhand -16.5788 22.564
lfingers 7.12502
lthumb 9.64171 52.3234
rfemur -50.7423 -34.1435 28.4532
rtibia 86.0247
rfoot -8.25011 4.61018
rtoes -12.0652
lfemur -23.9722 -1.65771 -16.4969
ltibia 33.4985
lfoot -13.2393 -9.38904
ltoes -16.0843
2426
root 8.27899 20.1964 31.7273 900.591 -76.8749 189.066
lowerback 5.87562 -1.21703 -10.0521
upperback 0.356336 -2.65542 -4.95575
thorax -2.73645 -1.3148 0.680309
lowerneck -18.5087 6.15833 7.8785
upperneck 36.7524 3.70925 2.71745
head 16.5282 2.51033 0.389446
rclavicle 4.77083e-015 -2.22639e-014
rhumerus -46.0116 7.60851 -88.6535
rradius 38.8525
rwrist -0.781412
rhand -10.0282 22.5611
rfingers 7.12502
rthumb 15.9565 -6.80163
lclavicle 4.77083e-015 -2.22639e-014
lhumerus -23.5375 -16.0605 90.9854
lradius 53.2864
lwrist 19.2874
lhand -16.4103 22.5561
lfingers 7.12502
lthumb 9.8043 52.3079
rfemur -51.8049 -34.545 28.7772
rtibia 86.0274
rfoot -8.89729 4.57119
rtoes -12.0967
lfemur -23.8369 -1.44085 -16.5415
ltibia 33.5093
lfoot -13.4094 -9.28367
ltoes -15.4535
2427
root 8.24007 20.1804 31.7079 901.784 -76.5849 187.983
lowerback 5.74629 -1.2371 -10.6284
upperback 0.27331 -2.70877 -4.87925
thorax -2.71846 -1.33284 1.07432
lowerneck -18.4306 6.15355 7.50496
upperneck 36.7893 3.77071 2.8895
head 16.5067 2.50345 0.536814
rclavicle -3.57812e-015 -1.59028e-014
rhumerus -46.1465 7.53927 -88.4531
rradius 38.6356
rwrist -0.34618
rhand -10.1548 22.9423
rfingers 7.12502
rthumb 15.8346 -6.43014
lclavicle -3.57812e-015 -1.59028e-014
lhumerus -23.5268 -16.3494 91.587
lradius 52.823
lwrist 18.6508
lhand -16.2437 22.7164
lfingers 7.12502
lthumb 9.96508 52.4605
rfemur -53.0234 -34.8954 28.9388
rtibia 86.0113
rfoot -9.45643 4.5026
rtoes -16.3704
lfemur -23.6375 -1.25636 -16.7949
ltibia 33.2041
lfoot -13.4576 -9.01298
ltoes -15.7695
2428
root 8.19816 20.237 31.6901 902.352 -76.29 187.474
lowerback 5.5973 -1.29479 -10.756
upperback 0.304797 -2.78376 -5.02886
thorax -2.59738 -1.38008 0.987482
lowerneck -18.5521 6.21872 7.35278
upperneck 36.8367 3.76928 3.21918
head 16.5478 2.52528 0.71107
rclavicle 7.95139e-015 0
rhumerus -46.1227 7.42083 -88.7299
rradius 38.3801
rwrist -0.136338
rhand -9.87929 23.5723
rfingers 7.12502
rthumb 16.0999 -5.77889
lclavicle 7.95139e-015 0
lhumerus -23.384 -16.8188 91.7274
lradius 52.3392
lwrist 18.0774
lhand -16.2044 22.7928
lfingers 7.12502
lthumb 10.0029 52.5351
rfemur -53.5022 -33.7778 28.8791
rtibia 85.5725
rfoot -10.1121 3.34932
rtoes -13.8746
lfemur -23.2808 -1.29467 -16.9004
ltibia 32.9098
lfoot -13.6172 -8.62835
ltoes -15.2815
2429
root 8.15963 20.2551 31.6757 901.941 -75.9589 187.888
lowerback 5.5382 -1.27161 -10.673
upperback 0.3817 -2.74182 -5.14486
thorax -2.49713 -1.37047 0.8157
lowerneck -18.7723 6.25006 7.36235
upperneck 36.8926 3.6773 3.47635
head 16.6265 2.52488 0.813019
rclavicle 1.94809e-014 6.04305e-014
rhumerus -46.1067 7.32677 -89.0922
rradius 38.2066
rwrist -0.288588
rhand -9.64455 23.4352
rfingers 7.12502
rthumb 16.3259 -5.89761
lclavicle 1.94809e-014 6.04305e-014
lhumerus -23.2358 -17.5106 91.8549
lradius 51.8492
lwrist 17.6179
lhand -15.9976 22.7379
lfingers 7.12502
lthumb 10.2025 52.4705
rfemur -54.0773 -33.341 29.1179
rtibia 85.141
rfoot -10.7334 2.60668
rtoes -12.5754
lfemur -22.8375 -1.499 -16.734
ltibia 32.5285
lfoot -13.6877 -8.15456
ltoes -13.8127
2430
root 8.12308 20.2548 31.6568 901.255 -75.5709 188.583
lowerback 5.55762 -1.21667 -10.8698
upperback 0.391059 -2.66964 -4.96236
thorax -2.48675 -1.32894 1.10812
lowerneck -18.9474 6.2214 7.27722
upperneck 37.0219 3.67194 3.39085
head 16.7335 2.49828 0.797344
rclavicle -1.86858e-014 8.26944e-014
rhumerus -46.1812 7.30112 -89.0104
rradius 38.1237
rwrist -0.051839
rhand -9.17015 23.2681
rfingers 7.12502
rthumb 16.7826 -6.02658
lclavicle -1.86858e-014 8.26944e-014
lhumerus -23.2709 -18.2055 92.375
lradius 51.3624
lwrist 17.2145
lhand -16.1545 22.9516
lfingers 7.12502
lthumb 10.0511 52.6916
rfemur -54.7326 -33.4249 29.6372
rtibia 84.6367
rfoot -11.4199 2.06912
rtoes -11.2864
lfemur -22.4211 -1.6263 -16.4808
ltibia 32.1865
lfoot -13.8003 -7.5755
ltoes -13.8342
2431
root 8.08581 20.2824 31.6377 901.094 -75.2556 188.807
lowerback 5.54638 -1.17567 -11.04
upperback 0.357242 -2.61999 -4.85068
thorax -2.50811 -1.29815 1.31367
lowerneck -19.1387 6.16882 7.06473
upperneck 37.1974 3.61713 3.44114
head 16.86 2.45142 0.854653
rclavicle -3.73715e-014 1.59028e-014
rhumerus -46.3031 7.38617 -89.0123
rradius 38.087
rwrist 0.0451157
rhand -8.99976 23.1495
rfingers 7.12502
rthumb 16.9467 -6.13116
lclavicle -3.73715e-014 1.59028e-014
lhumerus -23.447 -18.9392 92.8647
lradius 50.925
lwrist 16.9937
lhand -15.535 22.8433
lfingers 7.12502
lthumb 10.6487 52.5535
rfemur -55.1341 -32.6796 29.8605
rtibia 83.9104
rfoot -12.0668 0.867215
rtoes -17.6818
lfemur -22.2252 -1.57657 -16.4241
ltibia 32.1424
lfoot -14.0787 -6.98016
ltoes -15.9197
2432
root 8.04878 20.2716 31.625 901.388 -74.9898 188.662
lowerback 5.39084 -1.17725 -10.9939
upperback 0.307846 -2.6104 -4.9649
thorax -2.48149 -1.29712 1.16495
lowerneck -19.1195 6.21185 6.9715
upperneck 37.1582 3.5853 3.76059
head 16.8247 2.46835 1.00353
rclavicle 3.73715e-014 6.36111e-014
rhumerus -46.414 7.47776 -89.3156
rradius 37.9801
rwrist -0.160463
rhand -8.99693 23.0367
rfingers 7.12502
rthumb 16.9494 -6.24378
lclavicle 3.73715e-014 6.36111e-014
lhumerus -23.5619 -19.3166 92.991
lradius 50.4526
lwrist 16.8045
lhand -13.2256 22.2732
lfingers 7.12502
lthumb 12.8757 51.856
rfemur -56.063 -32.7952 30.1756
rtibia 83.3414
rfoot -12.4728 0.534707
rtoes -13.5187
lfemur -22.2829 -1.45886 -16.5163
ltibia 32.2579
lfoot -14.3629 -6.34294
ltoes -17.7962
2433
root 8.00974 20.2659 31.6066 901.376 -74.6379 188.864
lowerback 5.16972 -1.2658 -10.9254
upperback 0.218552 -2.70276 -5.01571
thorax -2.44732 -1.34393 1.07483
lowerneck -19.209 6.1868 6.88781
upperneck 37.306 3.5398 3.77283
head 16.9201 2.43357 1.01965
rclavicle -1.27222e-014 -6.36111e-015
rhumerus -46.5356 7.8177 -89.7406
rradius 37.8388
rwrist -0.283719
rhand -8.53321 23.0694
rfingers 7.12502
rthumb 17.3957 -6.17215
lclavicle -1.27222e-014 -6.36111e-015
lhumerus -23.5989 -19.0564 93.0393
lradius 49.7701
lwrist 16.0861
lhand -11.5427 21.9139
lfingers 7.12502
lthumb 14.4976 51.3874
rfemur -56.8839 -32.7707 30.6173
rtibia 82.6076
rfoot -12.9227 0.216566
rtoes -15.64
lfemur -22.2461 -1.36732 -16.4498
ltibia 32.2172
lfoot -14.6425 -5.74664
ltoes -17.8461
2434
root 7.96897 20.2671 31.5809 901.652 -74.304 188.648
lowerback 5.01317 -1.29337 -11.1209
upperback 0.208246 -2.73037 -5.01619
thorax -2.3592 -1.36027 1.17675
lowerneck -19.3894 6.15882 6.7156
upperneck 37.4184 3.48629 3.88592
head 17.0135 2.40116 1.09698
rclavicle 3.89618e-014 -3.18055e-015
rhumerus -46.6383 7.88915 -89.9976
rradius 37.8363
rwrist -0.0487057
rhand -8.18086 22.9338
rfingers 7.12502
rthumb 17.7348 -6.27741
lclavicle 3.89618e-014 -3.18055e-015
lhumerus -23.5479 -18.9049 93.2737
lradius 48.9503
lwrist 15.0148
lhand -11.3021 21.9614
lfingers 7.12502
lthumb 14.7295 51.418
rfemur -57.3917 -32.7288 30.8158
rtibia 81.7764
rfoot -13.4161 0.05966
rtoes -15.7929
lfemur -22.0427 -1.38493 -16.4809
ltibia 32.2014
lfoot -15.0959 -5.22723
ltoes -16.5331
2435
root 7.92805 20.2809 31.5519 902.353 -74.0105 187.919
lowerback 4.83887 -1.2359 -11.432
upperback 0.301303 -2.64749 -5.11131
thorax -2.16402 -1.33264 1.23391
lowerneck -19.6873 6.11722 6.51313
upperneck 37.5132 3.32906 4.2175
head 17.1228 2.35672 1.26101
rclavicle -1.55052e-014 4.77083e-014
rhumerus -46.6334 7.4493 -90.0707
rradius 37.8501
rwrist 0.43191
rhand -7.91081 22.9449
rfingers 7.12502
rthumb 17.9947 -6.24263
lclavicle -1.55052e-014 4.77083e-014
lhumerus -23.4624 -19.1535 93.411
lradius 48.2049
lwrist 14.3077
lhand -11.2233 22.1686
lfingers 7.12502
lthumb 14.8054 51.6197
rfemur -57.585 -32.2496 30.603
rtibia 80.8822
rfoot -13.8954 -0.418257
rtoes -13.7266
lfemur -21.6988 -1.37453 -16.6971
ltibia 32.0669
lfoot -15.4546 -4.74424
ltoes -15.2275
2436
root 7.88723 20.2935 31.5222 902.255 -73.6693 188.141
lowerback 4.5808 -1.31219 -11.6162
upperback 0.311176 -2.70632 -4.98026
thorax -1.98693 -1.36564 1.46383
lowerneck -19.8189 6.23936 6.29482
upperneck 37.596 3.52764 4.34809
head 17.1872 2.42336 1.40398
rclavicle 5.20816e-014 6.36111e-015
rhumerus -46.6412 7.7447 -90.1744
rradius 37.7966
rwrist 0.558497
rhand -7.64862 23.1627
rfingers 7.12502
rthumb 18.2469 -6.00142
lclavicle 5.20816e-014 6.36111e-015
lhumerus -23.44 -18.7973 93.5353
lradius 47.4704
lwrist 13.6881
lhand -11.1475 22.3578
lfingers 7.12502
lthumb 14.8784 51.8036
rfemur -57.8785 -31.8209 30.7998
rtibia 79.8951
rfoot -14.347 -1.07003
rtoes -10.8307
lfemur -21.4532 -1.23562 -16.6042
ltibia 31.853
lfoot -15.5232 -4.39064
ltoes -14.2864
2437
root 7.84756 20.306 31.4931 901.641 -73.295 188.784
lowerback 4.59556 -1.35816 -11.6182
upperback 0.223076 -2.76462 -4.81105
thorax -2.07208 -1.38274 1.64608
lowerneck -19.6992 6.40234 6.16371
upperneck 37.6117 3.83191 4.35026
head 17.1581 2.52437 1.48415
rclavicle 7.15625e-015 4.77083e-014
rhumerus -46.8822 8.28232 -90.4231
rradius 37.7556
rwrist 0.557719
rhand -7.66276 23.198
rfingers 7.12502
rthumb 18.2333 -5.96742
lclavicle 7.15625e-015 4.77083e-014
lhumerus -23.6053 -18.3635 93.7317
lradius 46.7205
lwrist 13.0164
lhand -11.0723 22.624
lfingers 7.12502
lthumb 14.9508 52.0644
rfemur -57.9709 -31.5385 31.1374
rtibia 78.7541
rfoot -14.8875 -1.72453
rtoes -18.3276
lfemur -21.0582 -1.11427 -16.337
ltibia 31.5847
lfoot -15.5344 -3.99489
ltoes -13.363
